<?xml version="1.0" encoding="utf-8"?>
<!-- Generator: Adobe Illustrator 24.0.1, SVG Export Plug-In . SVG Version: 6.00 Build 0)  -->
<svg version="1.1" id="Layer_1" xmlns="http://www.w3.org/2000/svg" xmlns:xlink="http://www.w3.org/1999/xlink" x="0px" y="0px"
	 viewBox="0 0 190.84 69.09" style="enable-background:new 0 0 190.84 69.09;" xml:space="preserve">
<style type="text/css">
	.st0{fill:#28313C;}
	.st1{fill:#42B87C;}
</style>
<g>
	<path class="st0" d="M57.17,23.12h-5.59c-0.33,0-0.61,0.22-0.7,0.54l-3.5,11.62l-3.87-11.73c-0.1-0.28-0.35-0.47-0.65-0.49h-4.73
		c-0.3,0.01-0.56,0.2-0.65,0.48l-3.88,11.75l-3.48-11.62c-0.09-0.32-0.37-0.53-0.7-0.54h-5.8c-0.2,0-0.38,0.1-0.48,0.27
		c-0.11,0.15-0.15,0.35-0.11,0.53l7.2,21.69c0.1,0.27,0.35,0.46,0.65,0.49h4.78c0.3,0,0.56-0.2,0.65-0.48l4.08-11.74l4.08,11.73
		c0.1,0.27,0.35,0.46,0.64,0.49h4.78c0.3-0.01,0.56-0.2,0.65-0.48l7.2-21.7c0.07-0.18,0.03-0.39-0.11-0.54
		C57.55,23.22,57.37,23.12,57.17,23.12z"/>
	<path class="st0" d="M71.17,22.69c-6.89,0-12.28,5.24-12.28,11.95s5.39,11.84,12.23,11.84s12.29-5.24,12.29-11.95
		S78.02,22.69,71.17,22.69z M76.51,34.63c0.01,3.24-2.31,5.69-5.33,5.69c-3.03,0-5.39-2.49-5.39-5.78s2.26-5.68,5.33-5.68
		S76.51,31.34,76.51,34.63L76.51,34.63z"/>
	<path class="st0" d="M108.14,23.05h-6.01c-0.31,0-0.59,0.2-0.7,0.48L96.7,36.56l-4.71-13.03c-0.11-0.29-0.39-0.48-0.7-0.48h-6.18
		c-0.2,0-0.38,0.1-0.49,0.27c-0.13,0.17-0.15,0.4-0.06,0.59l8.78,21.75c0.11,0.26,0.36,0.43,0.65,0.43h5.2
		c0.29,0,0.54-0.17,0.65-0.43l8.78-21.76c0.06-0.18,0.04-0.38-0.06-0.54C108.48,23.15,108.35,23.05,108.14,23.05z"/>
	<path class="st0" d="M133.39,23.06h-5.6c-0.14,0-0.28,0.06-0.38,0.16c-0.1,0.1-0.16,0.24-0.16,0.38v10.9l-8.53-11.18
		c-0.13-0.17-0.33-0.27-0.54-0.27h-5.32c-0.3,0-0.54,0.24-0.54,0.54v21.97c0,0.14,0.06,0.28,0.16,0.38s0.24,0.16,0.38,0.16h5.66
		c0.14,0,0.28-0.06,0.38-0.16c0.1-0.1,0.16-0.24,0.16-0.38V34.23l8.82,11.6c0.13,0.17,0.33,0.27,0.54,0.27h4.96
		c0.3,0,0.54-0.24,0.54-0.54V23.6C133.91,23.3,133.68,23.07,133.39,23.06z"/>
	<g>
		<circle class="st1" cx="141.22" cy="42.45" r="3.66"/>
	</g>
	<path class="st0" d="M148.99,33.66h3.5c0.12,0,0.23,0.04,0.31,0.13c0.08,0.08,0.13,0.19,0.13,0.31v11.19
		c0.01,0.12-0.04,0.23-0.12,0.32s-0.2,0.13-0.32,0.13h-3.5c-0.12,0-0.23-0.04-0.31-0.13c-0.08-0.08-0.13-0.19-0.13-0.31V34.1
		C148.5,33.88,148.72,33.66,148.99,33.66z"/>
	<path class="st0" d="M161.9,33.3c-3.54,0-6.4,2.87-6.4,6.4c0,3.54,2.87,6.4,6.4,6.4s6.4-2.87,6.4-6.4
		C168.3,36.17,165.43,33.3,161.9,33.3z M161.9,42.36c-1.47,0-2.66-1.19-2.66-2.66c0-1.47,1.19-2.66,2.66-2.66
		c1.47,0,2.66,1.19,2.66,2.66C164.55,41.17,163.36,42.35,161.9,42.36L161.9,42.36z"/>
</g>
</svg>
